<svg width="50" height="16" viewBox="0 0 50 16" fill="none" xmlns="http://www.w3.org/2000/svg">
<path d="M0.791191 11.51C0.781191 11.51 0.751191 11.505 0.701191 11.495C0.641191 11.495 0.611191 11.485 0.611191 11.465C0.811191 11.075 1.04119 10.59 1.30119 10.01C1.56119 9.42 1.83119 8.79 2.11119 8.12C2.02119 8.1 1.92619 8.08 1.82619 8.06C1.73619 8.04 1.64119 8.02 1.54119 8C1.47119 7.92 1.41619 7.805 1.37619 7.655C1.33619 7.495 1.31619 7.39 1.31619 7.34C1.31619 7.27 1.33119 7.235 1.36119 7.235C1.42119 7.235 1.53119 7.26 1.69119 7.31C1.86119 7.36 2.09119 7.4 2.38119 7.43C2.65119 6.77 2.91119 6.1 3.16119 5.42C3.42119 4.73 3.65619 4.07 3.86619 3.44C4.07619 2.8 4.24619 2.225 4.37619 1.715L6.02619 0.844999C6.10619 0.844999 6.21619 0.869999 6.35619 0.919999C6.49619 0.959999 6.60619 1.03 6.68619 1.13C6.65619 1.39 6.63619 1.66 6.62619 1.94C6.61619 2.21 6.61119 2.48 6.61119 2.75C6.61119 3.57 6.65619 4.395 6.74619 5.225C6.83619 6.045 6.95119 6.84 7.09119 7.61C7.23119 8.37 7.37619 9.08 7.52619 9.74C7.68619 10.4 7.83119 10.975 7.96119 11.465C7.96119 11.495 7.92119 11.51 7.84119 11.51C7.69119 11.51 7.57119 11.49 7.48119 11.45C7.39119 11.41 7.31619 11.355 7.25619 11.285C7.09619 10.935 6.91619 10.48 6.71619 9.92C6.52619 9.36 6.33619 8.755 6.14619 8.105C5.46619 8.215 4.77619 8.27 4.07619 8.27C3.88619 8.27 3.70619 8.27 3.53619 8.27C3.36619 8.26 3.19619 8.25 3.02619 8.24C2.79619 8.72 2.55119 9.21 2.29119 9.71C2.03119 10.21 1.75119 10.735 1.45119 11.285C1.37119 11.355 1.27619 11.41 1.16619 11.45C1.05619 11.49 0.931191 11.51 0.791191 11.51ZM3.38619 7.475C3.78619 7.465 4.20119 7.435 4.63119 7.385C5.06119 7.335 5.48119 7.25 5.89119 7.13C5.71119 6.45 5.55119 5.765 5.41119 5.075C5.27119 4.385 5.17119 3.75 5.11119 3.17C4.82119 3.97 4.53619 4.72 4.25619 5.42C3.97619 6.11 3.68619 6.795 3.38619 7.475ZM10.3905 11.465C10.1705 11.465 9.96049 11.455 9.76049 11.435C9.56049 11.415 9.30549 11.355 8.99549 11.255C8.94549 11.215 8.88549 11.125 8.81549 10.985C8.75549 10.835 8.72549 10.72 8.72549 10.64C8.72549 10.6 8.74049 10.58 8.77049 10.58C8.82049 10.58 8.95549 10.61 9.17549 10.67C9.39549 10.72 9.69049 10.745 10.0605 10.745C10.5505 10.745 10.9555 10.65 11.2755 10.46C11.5955 10.26 11.7555 9.98 11.7555 9.62C11.7555 9.38 11.6705 9.15 11.5005 8.93C11.3405 8.71 11.1405 8.495 10.9005 8.285C10.6605 8.065 10.4155 7.84 10.1655 7.61C9.92549 7.38 9.72049 7.135 9.55049 6.875C9.39049 6.605 9.31049 6.31 9.31049 5.99C9.31049 5.84 9.35549 5.655 9.44549 5.435C9.53549 5.215 9.71549 4.99 9.98549 4.76C10.2555 4.53 10.6605 4.315 11.2005 4.115C11.7405 3.915 12.4555 3.755 13.3455 3.635L13.6755 3.92L13.1955 5.255C13.0055 5.125 12.7855 5.02 12.5355 4.94C12.2955 4.85 12.0605 4.805 11.8305 4.805C11.5405 4.805 11.2805 4.87 11.0505 5C10.8305 5.12 10.7205 5.34 10.7205 5.66C10.7205 5.89 10.8105 6.12 10.9905 6.35C11.1705 6.57 11.3905 6.795 11.6505 7.025C11.9205 7.245 12.1855 7.48 12.4455 7.73C12.7055 7.97 12.9255 8.235 13.1055 8.525C13.2855 8.805 13.3755 9.11 13.3755 9.44C13.3755 9.63 13.3405 9.84 13.2705 10.07C13.2005 10.3 13.0605 10.52 12.8505 10.73C12.6505 10.94 12.3505 11.115 11.9505 11.255C11.5605 11.395 11.0405 11.465 10.3905 11.465ZM15.1779 11.465C15.0879 11.465 15.0429 11.44 15.0429 11.39C15.2929 10.24 15.4679 9.155 15.5679 8.135C15.6679 7.105 15.7179 6.165 15.7179 5.315C15.7179 4.655 15.6879 4.02 15.6279 3.41C15.5679 2.8 15.4929 2.25 15.4029 1.76C15.3129 1.26 15.2229 0.86 15.1329 0.559999L15.5079 0.32L16.7079 0.89C16.7979 1.58 16.8429 2.32 16.8429 3.11C16.8429 3.66 16.8179 4.225 16.7679 4.805C16.7279 5.375 16.6679 5.94 16.5879 6.5H16.7229C17.1329 5.73 17.5779 5.11 18.0579 4.64C18.5379 4.16 18.9979 3.92 19.4379 3.92C19.8679 3.92 20.1729 4.08 20.3529 4.4C20.5429 4.71 20.6379 5.115 20.6379 5.615C20.6379 6.495 20.5729 7.395 20.4429 8.315C20.3129 9.225 20.1929 10.16 20.0829 11.12C20.0129 11.19 19.9029 11.24 19.7529 11.27C19.6029 11.31 19.4929 11.33 19.4229 11.33C19.3529 11.33 19.3179 11.315 19.3179 11.285C19.3779 10.705 19.4279 10.14 19.4679 9.59C19.5079 9.04 19.5279 8.535 19.5279 8.075C19.5279 7.375 19.4629 6.81 19.3329 6.38C19.2129 5.94 18.9829 5.72 18.6429 5.72C18.2329 5.72 17.7829 6.07 17.2929 6.77C16.8129 7.46 16.4129 8.505 16.0929 9.905L15.7929 11.21C15.7229 11.28 15.6179 11.34 15.4779 11.39C15.3479 11.44 15.2479 11.465 15.1779 11.465ZM23.4301 2.825C23.1801 2.825 22.9901 2.735 22.8601 2.555C22.7301 2.365 22.6651 2.175 22.6651 1.985C22.6651 1.695 22.7801 1.45 23.0101 1.25C23.2401 1.05 23.5751 0.92 24.0151 0.859999C24.1851 0.989999 24.3001 1.145 24.3601 1.325C24.4301 1.495 24.4651 1.66 24.4651 1.82C24.4651 2.13 24.3551 2.375 24.1351 2.555C23.9151 2.735 23.6801 2.825 23.4301 2.825ZM22.6051 11.195C22.5351 11.195 22.5001 11.18 22.5001 11.15C22.6401 10.34 22.7351 9.605 22.7851 8.945C22.8451 8.285 22.8751 7.695 22.8751 7.175C22.8751 6.355 22.8301 5.685 22.7401 5.165C22.6501 4.645 22.5651 4.24 22.4851 3.95L22.8451 3.725L24.0601 4.31C24.0701 4.47 24.0751 4.635 24.0751 4.805C24.0851 4.965 24.0901 5.13 24.0901 5.3C24.0901 6.24 24.0051 7.185 23.8351 8.135C23.6751 9.075 23.4551 10.025 23.1751 10.985C23.1151 11.045 23.0201 11.095 22.8901 11.135C22.7701 11.175 22.6751 11.195 22.6051 11.195Z" fill="#077FE2" fill-opacity="0.95"/>
<path d="M28.1167 11.42C27.6967 11.42 27.3067 11.405 26.9467 11.375C26.5867 11.355 26.1317 11.285 25.5817 11.165C25.5017 11.085 25.4417 10.99 25.4017 10.88C25.3717 10.76 25.3567 10.675 25.3567 10.625C25.3567 10.555 25.3717 10.52 25.4017 10.52C25.4817 10.52 25.6617 10.56 25.9417 10.64C26.2217 10.71 26.6367 10.745 27.1867 10.745C27.8767 10.745 28.4867 10.65 29.0167 10.46C29.5467 10.26 29.9617 9.98 30.2617 9.62C30.5617 9.26 30.7117 8.83 30.7117 8.33C30.7117 7.98 30.6117 7.68 30.4117 7.43C30.2117 7.17 29.9517 6.955 29.6317 6.785C29.3217 6.605 28.9917 6.47 28.6417 6.38C28.2917 6.28 27.9617 6.22 27.6517 6.2C27.6417 6.76 27.6117 7.3 27.5617 7.82C27.5117 8.33 27.4517 8.775 27.3817 9.155C27.3117 9.525 27.2417 9.78 27.1717 9.92C27.1217 9.99 27.0417 10.045 26.9317 10.085C26.8217 10.125 26.7417 10.145 26.6917 10.145C26.6217 10.145 26.5867 10.13 26.5867 10.1C26.6367 9.8 26.6817 9.42 26.7217 8.96C26.7717 8.5 26.7967 8.005 26.7967 7.475C26.7967 6.735 26.7617 5.995 26.6917 5.255C26.6217 4.515 26.4917 3.84 26.3017 3.23C26.1117 2.61 25.8367 2.125 25.4767 1.775L26.0917 0.769999C26.4617 1.08 26.8767 1.315 27.3367 1.475C27.7967 1.635 28.2567 1.76 28.7167 1.85C29.1867 1.94 29.6167 2.03 30.0067 2.12C30.4067 2.21 30.7267 2.345 30.9667 2.525C31.2067 2.695 31.3267 2.955 31.3267 3.305C31.3267 3.525 31.2367 3.745 31.0567 3.965C30.8867 4.175 30.6717 4.38 30.4117 4.58C30.1517 4.77 29.8867 4.94 29.6167 5.09C29.3567 5.23 29.1317 5.345 28.9417 5.435C28.7517 5.525 28.6417 5.575 28.6117 5.585C29.4917 5.645 30.2067 5.82 30.7567 6.11C31.3167 6.4 31.7267 6.755 31.9867 7.175C32.2567 7.585 32.3917 8.015 32.3917 8.465C32.3917 8.955 32.2367 9.43 31.9267 9.89C31.6267 10.34 31.1617 10.71 30.5317 11C29.9017 11.28 29.0967 11.42 28.1167 11.42ZM27.6667 5.105C28.0667 4.945 28.4117 4.765 28.7017 4.565C28.9917 4.365 29.2167 4.17 29.3767 3.98C29.5467 3.79 29.6317 3.64 29.6317 3.53C29.6317 3.38 29.5467 3.26 29.3767 3.17C29.2067 3.07 28.9967 2.99 28.7467 2.93C28.5067 2.86 28.2617 2.795 28.0117 2.735C27.7717 2.665 27.5767 2.59 27.4267 2.51C27.4367 2.52 27.4567 2.605 27.4867 2.765C27.5267 2.915 27.5667 3.18 27.6067 3.56C27.6467 3.93 27.6667 4.445 27.6667 5.105ZM33.5586 11.465C33.4786 11.465 33.4386 11.44 33.4386 11.39C33.7086 10.24 33.8936 9.155 33.9936 8.135C34.0936 7.105 34.1436 6.165 34.1436 5.315C34.1436 4.655 34.1136 4.02 34.0536 3.41C33.9936 2.8 33.9186 2.25 33.8286 1.76C33.7386 1.26 33.6486 0.86 33.5586 0.559999L33.9336 0.32L35.1336 0.89C35.2536 1.69 35.3036 2.555 35.2836 3.485C35.2736 4.415 35.2186 5.355 35.1186 6.305C35.0186 7.245 34.8886 8.14 34.7286 8.99C34.5786 9.84 34.4186 10.58 34.2486 11.21C34.1786 11.28 34.0686 11.34 33.9186 11.39C33.7686 11.44 33.6486 11.465 33.5586 11.465ZM39.4414 11.495C38.9614 11.495 38.5214 11.37 38.1214 11.12C37.7214 10.88 37.4014 10.525 37.1614 10.055C36.9214 9.575 36.8014 8.985 36.8014 8.285C36.8014 7.805 36.8914 7.315 37.0714 6.815C37.2614 6.315 37.5664 5.845 37.9864 5.405C38.4064 4.965 38.9714 4.595 39.6814 4.295C40.3914 3.995 41.2664 3.805 42.3064 3.725L42.4714 4.145L41.7514 4.97C42.0014 5.27 42.2014 5.615 42.3514 6.005C42.5114 6.395 42.5914 6.905 42.5914 7.535C42.5914 7.995 42.5264 8.46 42.3964 8.93C42.2764 9.4 42.0864 9.83 41.8264 10.22C41.5664 10.6 41.2364 10.905 40.8364 11.135C40.4464 11.375 39.9814 11.495 39.4414 11.495ZM39.6064 10.13C40.0464 10.13 40.4264 10 40.7464 9.74C41.0664 9.47 41.3114 9.15 41.4814 8.78C41.6514 8.41 41.7364 8.06 41.7364 7.73C41.7364 7.25 41.6864 6.765 41.5864 6.275C41.4864 5.785 41.2614 5.335 40.9114 4.925C40.4214 5.005 39.9664 5.185 39.5464 5.465C39.1264 5.745 38.7914 6.1 38.5414 6.53C38.2914 6.95 38.1664 7.43 38.1664 7.97C38.1664 8.59 38.2914 9.105 38.5414 9.515C38.7914 9.925 39.1464 10.13 39.6064 10.13ZM43.9498 15.26L43.5898 14.99L43.9348 13.535C44.3948 13.665 44.8148 13.73 45.1948 13.73C45.6948 13.73 46.1098 13.605 46.4398 13.355C46.7798 13.115 47.0548 12.785 47.2648 12.365C47.4748 11.955 47.6348 11.5 47.7448 11C47.8648 10.49 47.9448 9.975 47.9848 9.455C48.0248 8.935 48.0498 8.445 48.0598 7.985L47.9548 7.94C47.5248 8.93 47.0548 9.72 46.5448 10.31C46.0348 10.89 45.5248 11.18 45.0148 11.18C44.6248 11.18 44.3248 11.025 44.1148 10.715C43.9048 10.395 43.7998 9.945 43.7998 9.365C43.7998 8.725 43.9298 8.135 44.1898 7.595C44.4498 7.045 44.7898 6.555 45.2098 6.125C45.6298 5.685 46.0898 5.3 46.5898 4.97C47.0898 4.63 47.5748 4.35 48.0448 4.13L48.9148 3.725L49.2898 3.98C49.2998 4.13 49.3048 4.335 49.3048 4.595C49.3048 4.855 49.3048 5.065 49.3048 5.225C49.3048 6.105 49.2298 7.04 49.0798 8.03C48.9398 9.01 48.7648 9.965 48.5548 10.895C48.4348 11.405 48.2498 11.915 47.9998 12.425C47.7498 12.945 47.4348 13.415 47.0548 13.835C46.6748 14.265 46.2248 14.61 45.7048 14.87C45.1848 15.13 44.5998 15.26 43.9498 15.26ZM45.7798 9.53C46.0998 9.53 46.4698 9.275 46.8898 8.765C47.3098 8.255 47.6798 7.48 47.9998 6.44C47.9798 6.13 47.9498 5.855 47.9098 5.615C47.8798 5.375 47.8498 5.15 47.8198 4.94C47.1598 5.22 46.6198 5.575 46.1998 6.005C45.7898 6.425 45.4848 6.86 45.2848 7.31C45.0948 7.75 44.9998 8.15 44.9998 8.51C44.9998 8.81 45.0648 9.055 45.1948 9.245C45.3348 9.435 45.5298 9.53 45.7798 9.53Z" fill="black"/>
</svg>
